<svg width="365" height="69" viewBox="0 0 365 69" fill="none" xmlns="http://www.w3.org/2000/svg">
<path d="M66.584 34.104C66.584 30.776 67.304 27.816 68.744 25.224C70.184 22.6 72.184 20.568 74.744 19.128C77.336 17.656 80.264 16.92 83.528 16.92C87.528 16.92 90.952 17.976 93.8 20.088C96.648 22.2 98.552 25.08 99.512 28.728H90.488C89.816 27.32 88.856 26.248 87.608 25.512C86.392 24.776 85 24.408 83.432 24.408C80.904 24.408 78.856 25.288 77.288 27.048C75.72 28.808 74.936 31.16 74.936 34.104C74.936 37.048 75.72 39.4 77.288 41.16C78.856 42.92 80.904 43.8 83.432 43.8C85 43.8 86.392 43.432 87.608 42.696C88.856 41.96 89.816 40.888 90.488 39.48H99.512C98.552 43.128 96.648 46.008 93.8 48.12C90.952 50.2 87.528 51.24 83.528 51.24C80.264 51.24 77.336 50.52 74.744 49.08C72.184 47.608 70.184 45.576 68.744 42.984C67.304 40.392 66.584 37.432 66.584 34.104ZM116.731 51.384C114.107 51.384 111.739 50.824 109.627 49.704C107.547 48.584 105.899 46.984 104.683 44.904C103.499 42.824 102.907 40.392 102.907 37.608C102.907 34.856 103.515 32.44 104.73 30.36C105.947 28.248 107.611 26.632 109.723 25.512C111.835 24.392 114.203 23.832 116.827 23.832C119.451 23.832 121.819 24.392 123.931 25.512C126.043 26.632 127.707 28.248 128.923 30.36C130.139 32.44 130.747 34.856 130.747 37.608C130.747 40.36 130.123 42.792 128.875 44.904C127.659 46.984 125.979 48.584 123.835 49.704C121.723 50.824 119.355 51.384 116.731 51.384ZM116.731 44.28C118.299 44.28 119.627 43.704 120.715 42.552C121.835 41.4 122.395 39.752 122.395 37.608C122.395 35.464 121.851 33.816 120.763 32.664C119.707 31.512 118.395 30.936 116.827 30.936C115.227 30.936 113.899 31.512 112.843 32.664C111.787 33.784 111.259 35.432 111.259 37.608C111.259 39.752 111.771 41.4 112.795 42.552C113.851 43.704 115.163 44.28 116.731 44.28ZM147.293 51.384C144.669 51.384 142.301 50.824 140.189 49.704C138.109 48.584 136.461 46.984 135.245 44.904C134.061 42.824 133.469 40.392 133.469 37.608C133.469 34.856 134.077 32.44 135.293 30.36C136.509 28.248 138.173 26.632 140.285 25.512C142.397 24.392 144.765 23.832 147.389 23.832C150.013 23.832 152.381 24.392 154.493 25.512C156.605 26.632 158.269 28.248 159.485 30.36C160.701 32.44 161.309 34.856 161.309 37.608C161.309 40.36 160.685 42.792 159.437 44.904C158.221 46.984 156.541 48.584 154.397 49.704C152.285 50.824 149.917 51.384 147.293 51.384ZM147.293 44.28C148.861 44.28 150.189 43.704 151.277 42.552C152.397 41.4 152.957 39.752 152.957 37.608C152.957 35.464 152.413 33.816 151.325 32.664C150.269 31.512 148.957 30.936 147.389 30.936C145.789 30.936 144.461 31.512 143.405 32.664C142.349 33.784 141.821 35.432 141.821 37.608C141.821 39.752 142.333 41.4 143.357 42.552C144.413 43.704 145.725 44.28 147.293 44.28ZM173.872 15.48V51H165.664V15.48H173.872ZM214.232 17.304V23.88H205.304V51H197.096V23.88H188.168V17.304H214.232ZM234.815 23.928C237.887 23.928 240.351 24.952 242.207 27C244.063 29.016 244.991 31.8 244.991 35.352V51H236.831V36.456C236.831 34.664 236.367 33.272 235.439 32.28C234.511 31.288 233.263 30.792 231.695 30.792C230.127 30.792 228.879 31.288 227.951 32.28C227.023 33.272 226.559 34.664 226.559 36.456V51H218.351V15.48H226.559V27.816C227.391 26.632 228.527 25.688 229.967 24.984C231.407 24.28 233.023 23.928 234.815 23.928ZM254.823 21.432C253.383 21.432 252.199 21.016 251.271 20.184C250.375 19.32 249.927 18.264 249.927 17.016C249.927 15.736 250.375 14.68 251.271 13.848C252.199 12.984 253.383 12.552 254.823 12.552C256.231 12.552 257.383 12.984 258.279 13.848C259.207 14.68 259.671 15.736 259.671 17.016C259.671 18.264 259.207 19.32 258.279 20.184C257.383 21.016 256.231 21.432 254.823 21.432ZM258.903 24.216V51H250.695V24.216H258.903ZM281.171 23.928C284.307 23.928 286.803 24.952 288.659 27C290.547 29.016 291.491 31.8 291.491 35.352V51H283.331V36.456C283.331 34.664 282.867 33.272 281.939 32.28C281.011 31.288 279.763 30.792 278.195 30.792C276.627 30.792 275.379 31.288 274.451 32.28C273.523 33.272 273.059 34.664 273.059 36.456V51H264.851V24.216H273.059V27.768C273.891 26.584 275.011 25.656 276.419 24.984C277.827 24.28 279.411 23.928 281.171 23.928ZM307.371 23.832C309.259 23.832 310.907 24.216 312.315 24.984C313.755 25.752 314.859 26.76 315.627 28.008V24.216H323.835V50.952C323.835 53.416 323.339 55.64 322.347 57.624C321.387 59.64 319.899 61.24 317.883 62.424C315.899 63.608 313.419 64.2 310.443 64.2C306.475 64.2 303.259 63.256 300.795 61.368C298.331 59.512 296.923 56.984 296.571 53.784H304.683C304.939 54.808 305.547 55.608 306.507 56.184C307.467 56.792 308.651 57.096 310.059 57.096C311.755 57.096 313.099 56.6 314.091 55.608C315.115 54.648 315.627 53.096 315.627 50.952V47.16C314.827 48.408 313.723 49.432 312.315 50.232C310.907 51 309.259 51.384 307.371 51.384C305.163 51.384 303.163 50.824 301.371 49.704C299.579 48.552 298.155 46.936 297.099 44.856C296.075 42.744 295.563 40.312 295.563 37.56C295.563 34.808 296.075 32.392 297.099 30.312C298.155 28.232 299.579 26.632 301.371 25.512C303.163 24.392 305.163 23.832 307.371 23.832ZM315.627 37.608C315.627 35.56 315.051 33.944 313.899 32.76C312.779 31.576 311.403 30.984 309.771 30.984C308.139 30.984 306.747 31.576 305.595 32.76C304.475 33.912 303.915 35.512 303.915 37.56C303.915 39.608 304.475 41.24 305.595 42.456C306.747 43.64 308.139 44.232 309.771 44.232C311.403 44.232 312.779 43.64 313.899 42.456C315.051 41.272 315.627 39.656 315.627 37.608ZM340.669 51.384C338.333 51.384 336.253 50.984 334.429 50.184C332.605 49.384 331.165 48.296 330.109 46.92C329.053 45.512 328.461 43.944 328.333 42.216H336.445C336.541 43.144 336.973 43.896 337.741 44.472C338.509 45.048 339.453 45.336 340.573 45.336C341.597 45.336 342.381 45.144 342.925 44.76C343.501 44.344 343.789 43.816 343.789 43.176C343.789 42.408 343.389 41.848 342.589 41.496C341.789 41.112 340.493 40.696 338.701 40.248C336.781 39.8 335.181 39.336 333.901 38.856C332.621 38.344 331.517 37.56 330.589 36.504C329.661 35.416 329.197 33.96 329.197 32.136C329.197 30.6 329.613 29.208 330.445 27.96C331.309 26.68 332.557 25.672 334.189 24.936C335.853 24.2 337.821 23.832 340.093 23.832C343.453 23.832 346.093 24.664 348.013 26.328C349.965 27.992 351.085 30.2 351.373 32.952H343.789C343.661 32.024 343.245 31.288 342.541 30.744C341.869 30.2 340.973 29.928 339.853 29.928C338.893 29.928 338.157 30.12 337.645 30.504C337.133 30.856 336.877 31.352 336.877 31.992C336.877 32.76 337.277 33.336 338.077 33.72C338.909 34.104 340.189 34.488 341.917 34.872C343.901 35.384 345.517 35.896 346.765 36.408C348.013 36.888 349.101 37.688 350.029 38.808C350.989 39.896 351.485 41.368 351.517 43.224C351.517 44.792 351.069 46.2 350.173 47.448C349.309 48.664 348.045 49.624 346.381 50.328C344.749 51.032 342.845 51.384 340.669 51.384Z" fill="white"/>
<circle cx="22.5" cy="34.5" r="22.5" fill="#FDBB61"/>
</svg>
