<svg width="350" height="313" viewBox="0 0 350 313" fill="none" xmlns="http://www.w3.org/2000/svg">
<g clip-path="url(#clip0_2_51)">
<path d="M42.6852 243.817L38.7761 228.397C31.8447 225.459 24.7532 222.915 17.5353 220.776L17.0415 227.942L15.0403 220.047C6.08954 217.49 0 216.365 0 216.365C0 216.365 8.22521 247.648 25.4781 271.563L45.5815 275.095L29.9637 277.347C32.1348 279.958 34.4678 282.43 36.9492 284.749C62.0465 308.047 90.0011 318.741 99.3862 308.625C108.771 298.509 96.0342 271.427 70.9369 248.129C63.1567 240.906 53.3821 235.11 43.5987 230.548L42.6852 243.817Z" fill="#E6E6E6"/>
<path d="M79.8633 227.071L84.4862 211.85C80.0711 205.752 75.3157 199.908 70.2425 194.345L66.1163 200.224L68.4837 192.432C62.142 185.614 57.5113 181.504 57.5113 181.504C57.5113 181.504 48.3842 212.536 50.7916 241.928L66.1786 255.344L51.6457 249.198C52.1544 252.557 52.8739 255.88 53.7999 259.148C63.2463 292.068 81.6523 315.67 94.9084 311.864C108.165 308.059 111.264 278.289 101.823 245.369C98.8954 235.164 93.5246 225.15 87.5071 216.186L79.8633 227.071Z" fill="#E6E6E6"/>
<path d="M299.952 289.33L302.861 286.188C302.509 284.192 302.044 282.217 301.47 280.274L299.779 281.212L301.268 279.603C300.534 277.207 299.896 275.666 299.896 275.666C299.896 275.666 294.038 282.107 291.165 289.507L293.314 294.565L290.517 291.368C290.245 292.241 290.028 293.131 289.868 294.031C288.285 303.112 289.965 310.992 293.625 311.63C297.285 312.268 301.533 305.422 303.116 296.338C303.552 293.437 303.539 290.486 303.08 287.588L299.952 289.33Z" fill="#E6E6E6"/>
<path d="M342.985 295.543L347.099 294.356C347.829 292.466 348.451 290.535 348.964 288.575L347.032 288.505L349.138 287.898C349.748 285.463 349.998 283.819 349.998 283.819C349.998 283.819 341.654 286.304 335.371 291.154L334.592 296.593L333.851 292.411C333.167 293.019 332.522 293.67 331.919 294.359C325.871 301.314 323.237 308.929 326.04 311.367C328.843 313.804 336.017 310.141 342.066 303.185C343.938 300.927 345.453 298.394 346.557 295.677L342.985 295.543Z" fill="#E6E6E6"/>
<path d="M227.982 21.2364V290.434C227.98 296.065 225.743 301.464 221.762 305.446C217.781 309.427 212.382 311.665 206.752 311.667H102.147C96.5148 311.667 91.1127 309.431 87.1291 305.449C83.1454 301.467 80.9064 296.065 80.9043 290.432V21.2364C80.9069 15.6038 83.1462 10.2028 87.1298 6.2211C91.1134 2.23941 96.5151 0.00307005 102.147 0.00384542H114.835C114.212 1.53626 113.975 3.19831 114.145 4.84386C114.314 6.48942 114.886 8.06811 115.808 9.44115C116.731 10.8142 117.977 11.9396 119.436 12.7183C120.895 13.497 122.524 13.9053 124.178 13.9073H183.815C185.469 13.9053 187.097 13.497 188.557 12.7183C190.016 11.9396 191.262 10.8142 192.184 9.44115C193.107 8.06811 193.678 6.48942 193.848 4.84386C194.017 3.19831 193.78 1.53626 193.157 0.00384542H206.749C212.379 0.00565256 217.778 2.24323 221.759 6.22471C225.74 10.2062 227.978 15.6057 227.979 21.2364H227.982Z" fill="#3F3D56"/>
<path d="M139.705 111.494C139.705 109.649 140.191 107.837 141.114 106.239C142.037 104.642 143.365 103.316 144.964 102.395C143.367 101.473 141.555 100.987 139.711 100.987C137.867 100.987 136.055 101.472 134.458 102.394C132.861 103.316 131.535 104.643 130.612 106.24C129.69 107.837 129.205 109.649 129.205 111.493C129.205 113.338 129.69 115.149 130.612 116.747C131.535 118.344 132.861 119.67 134.458 120.592C136.055 121.514 137.867 122 139.711 122C141.555 121.999 143.367 121.514 144.964 120.591C143.365 119.67 142.038 118.345 141.115 116.748C140.191 115.151 139.705 113.339 139.705 111.494Z" fill="white"/>
<path d="M152.911 111.494C152.911 109.649 153.398 107.837 154.321 106.239C155.244 104.642 156.572 103.316 158.17 102.395C156.573 101.473 154.762 100.987 152.918 100.987C151.073 100.987 149.262 101.472 147.665 102.394C146.067 103.316 144.741 104.643 143.819 106.24C142.897 107.837 142.411 109.649 142.411 111.493C142.411 113.338 142.897 115.149 143.819 116.747C144.741 118.344 146.067 119.67 147.665 120.592C149.262 121.514 151.073 122 152.918 122C154.762 121.999 156.573 121.514 158.17 120.591C156.572 119.67 155.244 118.345 154.321 116.748C153.398 115.151 152.912 113.339 152.911 111.494Z" fill="white"/>
<path d="M165.817 121.999C171.619 121.999 176.322 117.296 176.322 111.493C176.322 105.691 171.619 100.987 165.817 100.987C160.015 100.987 155.312 105.691 155.312 111.493C155.312 117.296 160.015 121.999 165.817 121.999Z" fill="#FDBB61"/>
<path d="M201.442 180.255H107.538V181.134H201.442V180.255Z" fill="white"/>
<path d="M110.505 174.762C112.142 174.762 113.47 173.435 113.47 171.797C113.47 170.159 112.142 168.831 110.505 168.831C108.867 168.831 107.539 170.159 107.539 171.797C107.539 173.435 108.867 174.762 110.505 174.762Z" fill="#FDBB61"/>
<path d="M201.442 209.912H107.538V210.792H201.442V209.912Z" fill="white"/>
<path d="M110.505 204.42C112.142 204.42 113.47 203.092 113.47 201.454C113.47 199.816 112.142 198.488 110.505 198.488C108.867 198.488 107.539 199.816 107.539 201.454C107.539 203.092 108.867 204.42 110.505 204.42Z" fill="#FDBB61"/>
<path d="M183.375 144.31H122.148C121.565 144.31 121.006 144.078 120.594 143.666C120.182 143.254 119.95 142.695 119.949 142.112V80.8785C119.95 80.2956 120.182 79.7367 120.594 79.3246C121.006 78.9125 121.565 78.6808 122.148 78.6802H183.375C183.957 78.681 184.516 78.9129 184.928 79.325C185.34 79.737 185.572 80.2957 185.573 80.8785V142.112C185.572 142.695 185.34 143.253 184.928 143.666C184.516 144.078 183.957 144.309 183.375 144.31ZM122.148 79.5588C121.798 79.559 121.463 79.698 121.216 79.9453C120.968 80.1925 120.829 80.5278 120.829 80.8775V142.111C120.829 142.461 120.968 142.796 121.216 143.043C121.463 143.291 121.798 143.43 122.148 143.43H183.375C183.724 143.429 184.059 143.29 184.307 143.043C184.554 142.796 184.693 142.461 184.693 142.111V80.8775C184.693 80.5279 184.554 80.1928 184.307 79.9456C184.059 79.6984 183.724 79.5593 183.375 79.5588H122.148Z" fill="white"/>
<path d="M197.547 229.629H172.225C170.074 229.629 168.33 231.373 168.33 233.525V239.573C168.33 241.725 170.074 243.469 172.225 243.469H197.547C199.699 243.469 201.443 241.725 201.443 239.573V233.525C201.443 231.373 199.699 229.629 197.547 229.629Z" fill="#FDBB61"/>
<path d="M350 311.239H0.349609V312.119H350V311.239Z" fill="#3F3D56"/>
<path d="M283.394 142.957C283.394 142.957 282.177 150.667 283.394 151.885C284.611 153.102 275.685 163.247 275.685 163.247L268.381 153.102C268.381 153.102 271.627 147.827 270.409 143.363L283.394 142.957Z" fill="#FFB8B8"/>
<path d="M256.617 200.98L251.34 257.385L253.367 301.214L263.106 298.374L263.514 259.012L274.876 224.923L281.771 261.85L280.958 299.183L293.132 299.589L293.945 258.196L295.37 200.387L256.617 200.98Z" fill="#2F2E41"/>
<path d="M281.366 297.967V306.894C281.366 306.894 279.338 313.387 285.83 312.982C292.321 312.576 291.916 309.735 291.916 309.735L289.482 298.779L281.366 297.967Z" fill="#2F2E41"/>
<path d="M262.701 297.967V306.894C262.701 306.894 264.73 313.387 258.238 312.982C251.746 312.576 252.152 309.735 252.152 309.735L254.586 298.779L262.701 297.967Z" fill="#2F2E41"/>
<path d="M276.497 147.418C281.651 147.418 285.83 143.239 285.83 138.085C285.83 132.93 281.651 128.751 276.497 128.751C271.343 128.751 267.165 132.93 267.165 138.085C267.165 143.239 271.343 147.418 276.497 147.418Z" fill="#FFB8B8"/>
<path d="M276.091 158.781L276.902 154.723H278.931L282.854 149.079L286.235 152.288L287.046 171.36H265.14L267.168 151.071L270.123 149.079C270.123 149.079 269.603 155.94 275.285 155.94L276.091 158.781Z" fill="#575A89"/>
<path d="M267.571 154.317C267.571 154.317 270.93 158.571 275.946 158.27C280.961 157.969 285.83 153.912 285.83 153.912L292.727 206.665C292.727 206.665 285.018 207.476 282.584 203.419L263.92 203.012L264.326 153.912L267.571 154.317Z" fill="#D0CDE1"/>
<path d="M270.309 148.379L252.558 157.157L257.021 182.317C257.021 182.317 258.644 191.65 257.021 195.302C255.397 198.953 253.775 223.301 253.775 223.301C253.775 223.301 272.034 225.33 269.599 196.517C267.165 167.704 270.309 148.379 270.309 148.379Z" fill="#2F2E41"/>
<path d="M259.454 209.099L261.889 211.534C261.889 211.534 269.193 224.113 272.439 219.65C275.685 215.186 266.758 207.475 266.758 207.475L262.701 204.229L259.454 209.099Z" fill="#FFB8B8"/>
<path d="M282.864 148.379L300.436 157.157L294.35 187.185C294.35 187.185 294.756 196.925 296.784 202.2C298.813 207.475 298.002 222.896 298.002 222.896C298.002 222.896 295.567 232.23 290.293 209.099C285.018 185.968 282.864 148.379 282.864 148.379Z" fill="#2F2E41"/>
<path d="M296.378 194.49H292.726C292.726 194.49 280.553 192.867 281.365 197.736C282.178 202.606 293.539 201.389 293.539 201.389L298.002 200.983L296.378 194.49Z" fill="#FFB8B8"/>
<path d="M254.992 155.939L252.152 157.157C252.152 157.157 249.312 163.244 248.906 165.273C248.5 167.302 243.631 191.65 244.849 194.492C246.066 197.334 258.238 212.347 258.238 212.347L265.136 205.042L254.992 191.245L257.833 173.796L254.992 155.939Z" fill="#2F2E41"/>
<path d="M294.35 156.346L299.719 156.798L300.843 157.157C300.843 157.157 312.204 187.998 309.769 192.867C307.334 197.735 296.784 206.664 296.784 206.664L293.944 194.089L299.218 189.219L293.944 172.987L294.35 156.346Z" fill="#2F2E41"/>
<path d="M284.392 130.888C284.392 130.888 286.834 126.31 281.463 125.89C281.463 125.89 276.58 122.973 272.674 126.306C272.674 126.306 269.255 125.474 268.279 127.973C268.153 127.567 268.184 127.129 268.364 126.744C268.544 126.359 268.861 126.055 269.253 125.891C269.253 125.891 265.834 125.058 265.834 129.222C264.999 131.794 264.999 134.565 265.834 137.137C267.295 140.886 267.788 141.303 267.788 141.303C267.788 141.303 265.38 133.443 271.24 133.024C277.1 132.605 283.657 129.012 284.146 133.595C284.635 138.177 285.606 139.426 285.606 139.426C285.606 139.426 290.009 132.762 284.392 130.888Z" fill="#2F2E41"/>
</g>
<defs>
<clipPath id="clip0_2_51">
<rect width="350" height="313" fill="white"/>
</clipPath>
</defs>
</svg>
