<svg width="584" height="618" viewBox="0 0 584 618" fill="none" xmlns="http://www.w3.org/2000/svg">
<g clip-path="url(#clip0_2_85)">
<path d="M167.53 104.251L165.622 103.295L160.459 113.596L162.367 114.552L167.53 104.251Z" fill="white"/>
<path d="M80.2118 484.193L73.2547 456.765C60.9201 451.54 48.3007 447.015 35.4563 443.211L34.5784 455.958L31.0164 441.915C15.0877 437.37 4.2514 435.366 4.2514 435.366C4.2514 435.366 18.8921 491.01 49.595 533.549L85.3686 539.829L57.5779 543.837C61.4416 548.483 65.5938 552.882 70.01 557.007C114.673 598.449 164.417 617.46 181.118 599.471C197.819 581.482 175.151 533.306 130.487 491.864C116.641 479.017 99.2479 468.708 81.837 460.594L80.2118 484.193Z" fill="#E6E6E6"/>
<path d="M146.37 454.401L154.595 427.323C146.738 416.476 138.275 406.081 129.247 396.187L121.905 406.646L126.117 392.783C114.832 380.664 106.59 373.347 106.59 373.347C106.59 373.347 90.3521 428.545 94.6404 480.828L122.017 504.688L96.1547 493.757C97.0598 499.731 98.34 505.642 99.9875 511.456C116.794 570.01 149.548 611.992 173.146 605.222C196.743 598.452 202.247 545.497 185.44 486.942C180.231 468.789 170.671 450.976 159.964 435.034L146.37 454.401Z" fill="#E6E6E6"/>
<path d="M292 617.999C453.268 617.999 584.001 611.316 584.001 603.072C584.001 594.828 453.268 588.145 292 588.145C130.733 588.145 0 594.828 0 603.072C0 611.316 130.733 617.999 292 617.999Z" fill="#3F3D56"/>
<path d="M462.599 143.427H459.285V52.5797C459.285 45.6744 457.925 38.8366 455.282 32.4568C452.639 26.077 448.764 20.2802 443.88 15.3974C438.996 10.5146 433.197 6.64142 426.816 3.99904C420.434 1.35665 413.595 -0.00318058 406.687 -0.00280754H214.162C207.255 -0.00280754 200.416 1.35724 194.035 3.99967C187.654 6.64211 181.856 10.5152 176.972 15.3978C172.088 20.2803 168.214 26.0768 165.571 32.4562C162.928 38.8355 161.568 45.6729 161.568 52.5778V550.974C161.567 557.879 162.928 564.717 165.571 571.096C168.214 577.476 172.088 583.272 176.972 588.155C181.855 593.037 187.653 596.911 194.035 599.553C200.416 602.196 207.255 603.556 214.162 603.556H406.687C413.594 603.556 420.434 602.196 426.815 599.553C433.196 596.911 438.994 593.038 443.878 588.155C448.761 583.272 452.635 577.476 455.279 571.097C457.922 564.717 459.282 557.88 459.282 550.975V208.094H462.596L462.599 143.427Z" fill="#3F3D56"/>
<path d="M448.087 52.947V550.612C448.086 561.026 443.948 571.012 436.583 578.376C429.217 585.739 419.228 589.876 408.812 589.877H215.358C204.941 589.877 194.951 585.74 187.585 578.377C180.219 571.013 176.081 561.026 176.08 550.612V52.947C176.08 42.533 180.219 32.5458 187.585 25.1821C194.951 17.8185 204.941 13.6815 215.358 13.6813H238.826C237.673 16.5141 237.234 19.5869 237.548 22.6292C237.862 25.6715 238.918 28.5901 240.625 31.1284C242.331 33.6667 244.636 35.7469 247.335 37.1859C250.035 38.625 253.046 39.3789 256.106 39.3813H366.402C369.461 39.3789 372.473 38.625 375.173 37.1859C377.872 35.7469 380.176 33.6667 381.883 31.1284C383.59 28.5901 384.646 25.6715 384.96 22.6292C385.273 19.5869 384.834 16.5141 383.681 13.6813H408.812C419.229 13.6815 429.219 17.8187 436.586 25.1828C443.952 32.5468 448.09 42.5346 448.09 52.9489L448.087 52.947Z" fill="white"/>
<path d="M427.961 110.48H196.206C193.805 110.48 191.86 112.426 191.86 114.825V381.467C191.86 383.867 193.805 385.812 196.206 385.812H427.961C430.362 385.812 432.307 383.867 432.307 381.467V114.825C432.307 112.426 430.362 110.48 427.961 110.48Z" fill="#E6E6E6"/>
<path d="M326.264 152.319C345.535 152.319 361.156 136.701 361.156 117.437C361.156 98.1717 345.535 82.5544 326.264 82.5544C306.994 82.5544 291.373 98.1717 291.373 117.437C291.373 136.701 306.994 152.319 326.264 152.319Z" fill="#3C354C"/>
<path d="M323.938 184.876C343.209 184.876 358.83 169.259 358.83 149.994C358.83 130.729 343.209 115.112 323.938 115.112C304.668 115.112 289.047 130.729 289.047 149.994C289.047 169.259 304.668 184.876 323.938 184.876Z" fill="#3C354C"/>
<path d="M308.819 125.576C308.819 125.576 307.267 147.281 300.289 150.382C293.311 153.484 322 200.768 322 200.768L333.631 186.04L324.326 159.684C324.326 159.684 331.304 137.979 334.405 136.428C337.507 134.878 308.819 125.576 308.819 125.576Z" fill="#FFC1C7"/>
<path opacity="0.1" d="M308.819 125.576C308.819 125.576 307.267 147.281 300.289 150.382C293.311 153.484 322 200.768 322 200.768L333.631 186.04L324.326 159.684C324.326 159.684 331.304 137.979 334.405 136.428C337.507 134.878 308.819 125.576 308.819 125.576Z" fill="black"/>
<path d="M404.19 236.426C404.19 236.426 438.307 254.255 431.328 274.409C424.349 294.562 409.618 251.929 409.618 251.929L397.987 243.402L404.19 236.426Z" fill="#FFC1C7"/>
<path d="M404.191 289.137C404.191 289.137 417.372 317.819 406.517 319.368C395.662 320.918 394.886 293.788 394.886 293.788L404.191 289.137Z" fill="#FFC1C7"/>
<path d="M347.588 206.97C348.363 206.97 354.566 209.295 354.566 209.295C354.566 209.295 377.828 251.93 387.131 260.457C396.435 268.983 409.618 289.912 407.292 291.463C404.966 293.014 387.907 303.866 386.357 300.766C384.806 297.665 378.603 286.037 374.726 283.712C370.849 281.387 351.464 255.806 346.036 253.481C340.609 251.155 328.202 213.947 328.202 213.947L347.588 206.97Z" fill="#FDBB61"/>
<path opacity="0.1" d="M347.588 206.97C348.363 206.97 354.566 209.295 354.566 209.295C354.566 209.295 377.828 251.93 387.131 260.457C396.435 268.983 409.618 289.912 407.292 291.463C404.966 293.014 387.907 303.866 386.357 300.766C384.806 297.665 378.603 286.037 374.726 283.712C370.849 281.387 351.464 255.806 346.036 253.481C340.609 251.155 328.202 213.947 328.202 213.947L347.588 206.97Z" fill="black"/>
<path d="M323.55 146.893C336.183 146.893 346.424 136.655 346.424 124.026C346.424 111.397 336.183 101.159 323.55 101.159C310.917 101.159 300.677 111.397 300.677 124.026C300.677 136.655 310.917 146.893 323.55 146.893Z" fill="#FFC1C7"/>
<path d="M354.567 209.295C354.567 209.295 342.16 224.024 340.61 224.798C340.028 225.093 336.151 226.805 331.545 228.837C323.908 232.201 314.246 236.426 314.246 236.426C314.246 236.426 308.043 240.302 304.941 240.302C301.84 240.302 284.781 248.829 284.781 248.829C284.781 248.829 272.374 258.131 264.621 258.131C256.867 258.131 263.845 262.782 253.766 262.007C243.686 261.233 252.214 232.552 256.867 228.675C261.52 224.799 262.295 209.296 261.519 204.645C260.744 199.995 265.396 182.941 271.599 161.237C277.801 139.532 290.981 148.057 290.981 148.057C290.981 148.057 298.735 143.406 299.511 143.406C300.286 143.406 308.04 156.584 309.59 164.336C310.552 169.142 316.883 179.012 321.547 185.816C324.408 189.995 326.649 193.018 326.649 193.018C326.649 193.018 326.649 191.568 326.61 189.569C326.549 186.111 326.362 181.034 325.873 179.065C325.098 175.964 324.323 159.686 324.323 159.686C324.323 159.686 324.323 158.91 326.649 158.91C328.975 158.91 347.584 187.592 347.584 187.592L349.135 203.095L351.787 206.124L354.567 209.295Z" fill="#FDBB61"/>
<path opacity="0.1" d="M354.566 209.294C354.566 209.294 342.159 224.023 340.609 224.797C340.027 225.092 336.15 226.804 331.544 228.836C309.193 223.17 283.618 210.457 283.618 210.457C283.618 210.457 276.252 184.489 282.455 172.861C288.658 161.234 306.492 174.411 306.492 174.411C306.492 174.411 313.284 179.659 321.55 185.814C323.194 187.039 324.892 188.302 326.613 189.566C335.61 196.178 345.044 202.836 348.905 204.643C349.611 204.968 350.588 205.472 351.79 206.123L354.566 209.294Z" fill="black"/>
<path d="M277.027 209.294C277.027 209.294 334.405 227.123 349.138 228.673C363.871 230.223 390.233 259.68 392.559 258.905C394.885 258.129 411.168 238.75 407.292 235.649C403.415 232.549 357.202 204.643 348.905 200.767C340.608 196.892 306.492 170.536 306.492 170.536C306.492 170.536 288.657 157.358 282.455 168.986C276.253 180.614 277.027 209.294 277.027 209.294Z" fill="#FDBB61"/>
<path d="M306.492 296.114C306.492 296.114 297.187 289.138 290.984 290.688C284.782 292.238 277.027 296.889 277.803 306.966C278.255 312.947 279.032 318.899 280.129 324.795H280.905L283.231 310.842C283.231 310.842 290.209 313.943 291.76 319.369C293.311 324.795 312.696 335.648 317.348 331.772C322 327.897 312.696 323.245 312.696 323.245L306.492 296.114Z" fill="#F2F2F2"/>
<path d="M306.492 296.114C306.492 296.114 297.187 289.138 290.984 290.688C284.782 292.238 277.027 296.889 277.803 306.966C278.255 312.947 279.032 318.899 280.129 324.795H280.905L283.231 310.842C283.231 310.842 290.209 313.943 291.76 319.369C293.311 324.795 312.696 335.648 317.348 331.772C322 327.897 312.696 323.245 312.696 323.245L306.492 296.114Z" fill="#2F2E41"/>
<path d="M323.548 302.315C323.548 302.315 390.231 294.563 387.129 282.16C384.028 269.757 360.768 255.804 360.768 255.804L321.999 263.555L296.599 291.035L306.491 296.113L323.548 302.315Z" fill="#2F2E41"/>
<path d="M293.311 313.167C293.311 313.167 280.13 335.647 276.253 336.422C272.375 337.198 267.723 341.848 273.151 351.925C276.405 357.943 278.509 364.515 279.354 371.304H280.909L280.134 357.351C280.134 357.351 290.213 373.63 290.989 379.831C291.765 386.033 320.453 392.234 325.106 383.707C329.759 375.18 318.903 368.979 318.903 368.979C318.903 368.979 302.62 351.15 304.946 338.748C307.272 326.345 309.598 323.244 309.598 323.244L293.311 313.167Z" fill="#2F2E41"/>
<path d="M250.665 257.355C250.665 257.355 243.687 301.539 269.274 299.989C294.861 298.439 348.363 266.662 348.363 266.662L364.646 248.833C364.646 248.833 376.277 232.554 356.893 227.904C337.508 223.253 305.717 239.531 305.717 239.531L257.643 260.46L250.665 257.355Z" fill="#2F2E41"/>
<path d="M361.549 244.952L364.651 248.828C364.651 248.828 317.352 325.569 312.7 326.344C308.048 327.12 291.765 315.492 291.765 313.167C291.765 310.841 297.968 297.664 299.518 296.113C301.069 294.562 316.577 258.904 319.678 256.579C322.78 254.255 361.549 244.952 361.549 244.952Z" fill="#2F2E41"/>
<path d="M324.714 123.638C338.846 123.638 350.302 115.829 350.302 106.197C350.302 96.5646 338.846 88.756 324.714 88.756C310.582 88.756 299.126 96.5646 299.126 106.197C299.126 115.829 310.582 123.638 324.714 123.638Z" fill="#3C354C"/>
<path d="M312.083 536.747C338.197 536.747 359.367 515.584 359.367 489.477C359.367 463.369 338.197 442.206 312.083 442.206C285.969 442.206 264.799 463.369 264.799 489.477C264.799 515.584 285.969 536.747 312.083 536.747Z" fill="#FDBB61"/>
</g>
<defs>
<clipPath id="clip0_2_85">
<rect width="584" height="618" fill="white"/>
</clipPath>
</defs>
</svg>
